# xmcd
#
# Track frame offsets:
#	150
#	12734
#	23112
#	38271
#	51114
#	65797
#	76783
#	92443
#	111838
#	125894
#	143749
#	154410
#	172619
#	187455
#	214906
#
# Disc length: 3157 seconds
#
# Revision: 0
# Processed by: cddbd v1.5.1PL0 Copyright (c) Steve Scherf et al.
# Submitted via: dBpowerAMP V4.0
#
DISCID=ce0c530f
DTITLE=Dalila - Amor Entre Mujeres
DYEAR=1900
DGENRE=
TTITLE0=Amor Entre Mujeres
TTITLE1=Quedate Con Ella
TTITLE2=Y Que De Mi
TTITLE3=Dame Mas Amor
TTITLE4=Hermana Mia Perdona
TTITLE5=Pero Ay Amor
TTITLE6=Amor Prohibido
TTITLE7=Desahogo
TTITLE8=Como La Flor
TTITLE9=Celos
TTITLE10=Dame Amor
TTITLE11=Que Ganas
TTITLE12=Bella Durmiente
TTITLE13=Triste Novela De Mi Amor
TTITLE14=Enganchados
EXTD=
EXTT0=
EXTT1=
EXTT2=
EXTT3=
EXTT4=
EXTT5=
EXTT6=
EXTT7=
EXTT8=
EXTT9=
EXTT10=
EXTT11=
EXTT12=
EXTT13=
EXTT14=
PLAYORDER=
